<svg xmlns="http://www.w3.org/2000/svg" xmlns:xlink="http://www.w3.org/1999/xlink" xmlns:lucid="lucid" width="1449.36" height="322"><g transform="translate(-639 -259)" lucid:page-tab-id="0_0"><path d="M500 0h2000v1000H500z" fill="#fff"/><path d="M640 366a6 6 0 0 1 6-6h148a6 6 0 0 1 6 6v108a6 6 0 0 1-6 6H646a6 6 0 0 1-6-6z" stroke="#000" stroke-width="2" fill="#fff"/><use xlink:href="#a" transform="matrix(1,0,0,1,652,372) translate(12.710286458333343 39.52777777777778)"/><use xlink:href="#b" transform="matrix(1,0,0,1,652,372) translate(60.69205729166667 39.52777777777778)"/><use xlink:href="#c" transform="matrix(1,0,0,1,652,372) translate(47.134114583333336 71.79340277777777)"/><path d="M801.5 420h64.13" stroke="#3a414a" fill="none"/><path d="M801.5 420.48h-.5v-.96h.5z" stroke="#3a414a" stroke-width=".05" fill="#3a414a"/><path d="M880.4 420l-14.27 4.63v-9.26z" stroke="#3a414a" fill="#3a414a"/><path d="M1120.48 420h41.4a6 6 0 0 1 6 6v88a6 6 0 0 0 6 6h16.1" stroke="#3a414a" fill="none"/><path d="M1120.5 420.48h-.56l.04-.48-.04-.48h.56z" stroke="#3a414a" stroke-width=".05" fill="#3a414a"/><path d="M1204.74 520l-14.26 4.63v-9.26z" stroke="#3a414a" fill="#3a414a"/><path d="M1207.36 466a6 6 0 0 1 6-6h148a6 6 0 0 1 6 6v108a6 6 0 0 1-6 6h-148a6 6 0 0 1-6-6z" stroke="#000" stroke-width="2" fill="#fff"/><use xlink:href="#d" transform="matrix(1,0,0,1,1219.3630672388879,472) translate(36.701171875 24.52777777777778)"/><use xlink:href="#e" transform="matrix(1,0,0,1,1219.3630672388879,472) translate(3.9592013888889 56.79340277777778)"/><use xlink:href="#f" transform="matrix(1,0,0,1,1219.3630672388879,472) translate(47.134114583333336 89.05902777777777)"/><path d="M1368.86 520h32.5a6 6 0 0 0 6-6v-88a6 6 0 0 1 6-6h16.62" stroke="#3a414a" fill="none"/><path d="M1368.88 520.48h-.52v-.96h.52z" stroke="#3a414a" stroke-width=".05" fill="#3a414a"/><path d="M1444.74 420l-14.26 4.63v-9.26z" stroke="#3a414a" fill="#3a414a"/><path d="M1447.36 366a6 6 0 0 1 6-6h148a6 6 0 0 1 6 6v108a6 6 0 0 1-6 6h-148a6 6 0 0 1-6-6z" stroke="#000" stroke-width="2" fill="#fff"/><use xlink:href="#g" transform="matrix(1,0,0,1,1459.3630672388879,372) translate(23.14322916666667 57.52777777777778)"/><use xlink:href="#h" transform="matrix(1,0,0,1,1459.3630672388879,372) translate(71.125 57.52777777777778)"/><path d="M1608.86 420h61.12" stroke="#3a414a" fill="none"/><path d="M1608.88 420.48h-.52v-.96h.52z" stroke="#3a414a" stroke-width=".05" fill="#3a414a"/><path d="M1684.74 420l-14.26 4.63v-9.26z" stroke="#3a414a" fill="#3a414a"/><path d="M1687.36 366a6 6 0 0 1 6-6h148a6 6 0 0 1 6 6v108a6 6 0 0 1-6 6h-148a6 6 0 0 1-6-6z" stroke="#000" stroke-width="2" fill="#fff"/><use xlink:href="#a" transform="matrix(1,0,0,1,1699.3630672388879,372) translate(23.14322916666667 57.52777777777778)"/><use xlink:href="#i" transform="matrix(1,0,0,1,1699.3630672388879,372) translate(71.125 57.52777777777778)"/><path d="M1848.86 420h61.12" stroke="#3a414a" fill="none"/><path d="M1848.88 420.48h-.52v-.96h.52z" stroke="#3a414a" stroke-width=".05" fill="#3a414a"/><path d="M1924.74 420l-14.26 4.63v-9.26z" stroke="#3a414a" fill="#3a414a"/><path d="M1927.36 366a6 6 0 0 1 6-6h148a6 6 0 0 1 6 6v108a6 6 0 0 1-6 6h-148a6 6 0 0 1-6-6z" stroke="#000" stroke-width="2" fill="#fff"/><use xlink:href="#j" transform="matrix(1,0,0,1,1939.3630672388877,372) translate(12.710286458333336 24.52777777777778)"/><use xlink:href="#k" transform="matrix(1,0,0,1,1939.3630672388877,372) translate(81.55794270833334 24.52777777777778)"/><use xlink:href="#l" transform="matrix(1,0,0,1,1939.3630672388877,372) translate(5.733289930555557 56.79340277777778)"/><use xlink:href="#m" transform="matrix(1,0,0,1,1939.3630672388877,372) translate(53.715060763888886 56.79340277777778)"/><use xlink:href="#n" transform="matrix(1,0,0,1,1939.3630672388877,372) translate(81.65559895833333 56.79340277777778)"/><use xlink:href="#o" transform="matrix(1,0,0,1,1939.3630672388877,372) translate(9.585286458333336 89.05902777777777)"/><use xlink:href="#p" transform="matrix(1,0,0,1,1939.3630672388877,372) translate(36.701171875 89.05902777777777)"/><use xlink:href="#q" transform="matrix(1,0,0,1,1939.3630672388877,372) translate(84.68294270833334 89.05902777777777)"/><path d="M1120.48 420h41.4a6 6 0 0 0 6-6v-88a6 6 0 0 1 6-6h16.1" stroke="#3a414a" fill="none"/><path d="M1120.5 420.48h-.56l.04-.48-.04-.48h.56z" stroke="#3a414a" stroke-width=".05" fill="#3a414a"/><path d="M1204.74 320l-14.26 4.63v-9.26z" stroke="#3a414a" fill="#3a414a"/><path d="M1207.36 266a6 6 0 0 1 6-6h148a6 6 0 0 1 6 6v108a6 6 0 0 1-6 6h-148a6 6 0 0 1-6-6z" stroke="#000" stroke-width="2" fill="#fff"/><g><use xlink:href="#r" transform="matrix(1,0,0,1,1219.3630672388879,272) translate(47.134114583333336 24.52777777777778)"/><use xlink:href="#e" transform="matrix(1,0,0,1,1219.3630672388879,272) translate(3.9592013888889 56.79340277777778)"/><use xlink:href="#s" transform="matrix(1,0,0,1,1219.3630672388879,272) translate(47.134114583333336 89.05902777777777)"/></g><path d="M1368.86 320h32.5a6 6 0 0 1 6 6v88a6 6 0 0 0 6 6h16.62" stroke="#3a414a" fill="none"/><path d="M1368.88 320.48h-.52v-.96h.52z" stroke="#3a414a" stroke-width=".05" fill="#3a414a"/><path d="M1444.74 420l-14.26 4.63v-9.26z" stroke="#3a414a" fill="#3a414a"/><path d="M996.18 333.58a8.07 8.07 0 0 1 9.63 0l111.38 82.84a4.46 4.46 0 0 1 0 7.16l-111.37 82.84a8.07 8.07 0 0 1-9.62 0L884.8 423.58a4.46 4.46 0 0 1 0-7.16z" stroke="#000" stroke-width="2" fill="#fff"/><g><use xlink:href="#t" transform="matrix(1,0,0,1,885,335) translate(95.13911458333334 58.71527777777778)"/><use xlink:href="#u" transform="matrix(1,0,0,1,885,335) translate(17.540373263888906 90.98090277777777)"/><use xlink:href="#v" transform="matrix(1,0,0,1,885,335) translate(151.87197048611108 90.98090277777777)"/><use xlink:href="#w" transform="matrix(1,0,0,1,885,335) translate(95.13911458333334 123.24652777777777)"/></g><defs><path d="M1832-609c40 0 34 51 34 97 0 11-17 34-34 28H91c-40 6-28-57-28-97-6-17 17-28 28-28h796v-307c0-46 68-23 108-28 17 0 28 11 28 28v307h808zM228-978c284-119 609-239 666-575 46-63 193-6 125 85 114 262 398 375 677 472-11 51-17 119-74 108-296-63-523-228-671-438-131 210-375 381-649 455-63 17-63-51-74-108zM1604 125c51 6 51 125 0 125H500C238 267 375-97 341-313c0-40 142-51 142 0V85c0 34 11 40 51 40h1070" id="x"/><path d="M1650-540c0 46-74 23-114 28-17 0-28-11-28-28v-1030c0-51 68-28 114-34 17 0 28 17 28 34v1030zM398-836c6 102 176 28 262 51 233 0 461-34 666-63 17 23 40 114 0 119-296 23-586 85-905 74-119 0-165-51-165-171v-683c0-46 74-23 114-28 17 0 28 11 28 28v671zM637 273C381 296 478-51 478-262c0-119 40-148 159-148h853c262-34 159 324 159 535 0 119-40 148-159 148H637zm871-506c0-46-11-46-51-51H672c-40 6-51 6-51 51V97c0 46 11 46 51 51h785c40-6 51-6 51-51v-330" id="y"/><g id="a"><use transform="matrix(0.010850694444444444,0,0,0.010850694444444444,0,0)" xlink:href="#x"/><use transform="matrix(0.010850694444444444,0,0,0.010850694444444444,20.865885416666664,0)" xlink:href="#y"/></g><path d="M296-893c188 23 432-40 529 11-6 40 11 91-28 97-176 17-319 11-501 11v381c0 46 11 46 51 51 239 6 461-17 660-63 46-11 40 40 46 80 6 23-6 40-23 40-199 46-472 68-717 68-125 0-154-51-159-171v-910c6-119 40-137 159-142h558c46 0 23 63 28 102 0 17-11 23-28 23H336c-40 0-40 6-40 46v375zm660 97c-40-11-46-125 0-125h262v-614c0-46 68-23 108-28 17 0 28 11 28 28V183c0 46-68 23-108 28-17 0-28-11-28-28v-978H956zm762 1052c0 46-68 23-108 28-17 0-28-11-28-28v-1826c0-46 63-34 108-34 17 0 28 17 28 34V256" id="z"/><path d="M677-1479c358 0 495 302 495 660 0 347-137 654-495 654-364 0-484-313-484-654 0-353 119-660 484-660zm0 1195c472 0 478-1075 0-1075-273 0-336 267-336 535 0 279 68 540 336 540zm973 540c0 46-74 23-114 28-17 0-28-11-28-28v-1826c0-51 68-28 114-34 17 0 28 17 28 34V256" id="A"/><path d="M1832-779c46-6 34 51 34 97 0 11-23 28-34 28H91c-34 0-28-57-28-97-6-17 11-34 28-28h1741zm-245 933c40-6 28 57 28 97 6 11-11 28-23 23H500C312 297 352 132 346-28c0-125 40-142 165-148h876c80 17 40-97 46-154 6-40 0-46-40-46H369c-40 0-28-57-28-97 0-11 17-23 28-23h1041c176-23 171 125 165 290 0 125-46 148-165 148H528c-80-11-34 108-46 165 6 34 6 51 46 46h1058zm-23-1229c0 114-34 131-154 131H511c-114 6-159-34-154-142v-501c0-40 74-17 114-23 51 17 11 148 23 216h933c11-102-51-256 114-216 11-6 28 11 23 23v512zm-187 11c97 11 34-137 51-210H495c11 74-40 210 51 210h831" id="B"/><g id="b"><use transform="matrix(0.010850694444444444,0,0,0.010850694444444444,0,0)" xlink:href="#z"/><use transform="matrix(0.010850694444444444,0,0,0.010850694444444444,20.865885416666664,0)" xlink:href="#A"/><use transform="matrix(0.010850694444444444,0,0,0.010850694444444444,41.73177083333333,0)" xlink:href="#B"/></g><path d="M734-768C580-643 404-535 194-449c-28-23-91-91-40-119 302-154 552-296 734-552 17-34-6-57-40-57H228c-40 0-17-63-23-97 0-17 6-23 23-23h677c245-23 131 210 46 307-40 40-74 91-119 137 114 85 239 159 381 210 57 23-6 91-23 125-176-34-319-154-455-250zM415-210c-51-6-51-125 0-125h1007c273-17 114 387 154 603 0 46-74 23-114 28-17 0-28-11-28-28v-438c6-40-11-40-46-40H415zm1474-803c0 40 11 97-28 97h-284v449c0 46-74 23-114 28-17 0-28-11-28-28v-1104c0-51 68-28 114-34 17 0 28 17 28 34v529h284c17-6 34 11 28 28zM865-1559c51 0 28 51 34 91 0 23-11 34-34 34H404c-46 0-23-57-28-97 0-17 6-28 28-28h461" id="C"/><path d="M119-614c284-199 501-461 501-905 0-63 74-23 119-28 57 63 6 228-6 307 68 256 262 415 461 540-23 34-34 80-63 102-205-85-358-262-466-444-102 222-262 398-472 523-34-23-57-57-74-97zm365 341c-40-11-46-125 0-125h1007c131 0 159 34 159 159v506c0 46-74 23-114 28-17 0-28-11-28-28v-501c0-34-11-40-46-40H484zm1024-893v-404c0-51 68-28 114-34 17 0 28 17 28 34v1035c0 46-74 23-114 28-17 0-28-11-28-28v-512h-421c-46 6-23-63-28-97 0-17 11-23 28-23h421" id="D"/><g id="c"><use transform="matrix(0.010850694444444444,0,0,0.010850694444444444,0,0)" xlink:href="#C"/><use transform="matrix(0.010850694444444444,0,0,0.010850694444444444,20.865885416666664,0)" xlink:href="#D"/></g><path d="M1320-825h262v-745c0-46 63-34 108-34 17 0 28 17 28 34V256c0 46-68 23-108 28-17 0-28-11-28-28v-961h-262v887c0 46-68 23-108 28-17 0-28-11-28-28v-1718c0-46 68-23 108-28 17 0 28 11 28 28v711zm-808-637c0-51 74-17 114-23 17 0 23 11 23 28 6 171 0 330-23 472 57 296 210 518 381 711-17 34-46 74-91 85-159-125-262-330-347-529-74 245-205 404-370 569-46 11-119-57-97-97 296-262 415-649 410-1217" id="E"/><path d="M91-34c-46-6-46-137 0-125h796v-358c-205-34-586 108-563-154 17-176-68-404 159-404h927c40 0 40-6 40-46v-216c0-40 0-46-40-46H352c-46 6-23-63-28-102-6-11 17-28 28-23h1081c216-23 159 222 159 410 0 125-40 137-165 142H505c-91 11-28 182-46 267 0 34 11 51 46 51h1104c40 0 28 57 28 97 0 11-17 23-28 23h-580v358h802c46-6 34 51 34 97 0 11-23 28-34 28H90" id="F"/><path d="M1599-1206c0 290-330 364-637 364s-637-63-637-364c0-302 319-364 637-364 307 0 637 68 637 364zm-148 0c0-205-267-239-489-239s-484 34-484 239c0 210 273 239 484 239 210 0 489-23 489-239zM1047-131c6 46-68 23-114 28-17 6-28-17-28-28v-415H91c-34 0-28-57-28-97-6-17 11-34 28-28h1741c46-6 34 51 34 97 0 11-23 28-34 28h-785v415zm563 256c51 6 51 125 0 125H484c-262 17-154-358-154-575 0-46 68-23 108-28 17 0 28 11 28 28V85c0 34 11 40 51 40h1092" id="G"/><g id="d"><use transform="matrix(0.010850694444444444,0,0,0.010850694444444444,0,0)" xlink:href="#E"/><use transform="matrix(0.010850694444444444,0,0,0.010850694444444444,20.865885416666664,0)" xlink:href="#F"/><use transform="matrix(0.010850694444444444,0,0,0.010850694444444444,41.73177083333333,0)" xlink:href="#G"/></g><path d="M613 24c-304 0-509-231-509-576 0-350 205-580 509-580 305 0 511 230 511 580 0 345-206 576-511 576zm0-161c226 0 329-195 329-415 0-222-103-419-329-419-223 0-326 196-326 419 0 220 103 415 326 415" id="H"/><path d="M158 0v-1118h174v172h12c41-113 157-188 290-188 26 0 70 2 91 3v181c-11-2-60-10-108-10-161 0-279 109-279 260V0H158" id="I"/><path d="M577 24c-279 0-473-224-473-580 0-354 195-576 474-576 218 0 287 134 324 193h14v-551h180V0H922v-173h-20C865-111 790 24 577 24zm27-161c203 0 314-172 314-421 0-247-108-413-314-413-212 0-317 181-317 413 0 235 108 421 317 421" id="J"/><path d="M628 24c-324 0-524-230-524-574 0-343 198-582 503-582 237 0 487 146 487 559v75H286c9 234 145 362 343 362 132 0 231-58 273-172l174 48C1024-91 857 24 628 24zM287-650h624c-17-190-120-322-304-322-192 0-309 151-320 322" id="K"/><path d="M934 0v166H0V0h934" id="L"/><path d="M611 442c-248 0-391-105-460-228l146-94c47 65 117 165 314 165 178 0 307-82 307-266v-224h-17C863-141 792-18 576-18c-268 0-472-195-472-546 0-346 197-568 476-568 216 0 288 133 326 193h17v-179h175V29c0 289-215 413-487 413zm-5-620c203 0 314-146 314-390 0-237-108-403-314-403-213 0-319 180-319 403 0 230 109 390 319 390" id="M"/><path d="M537 14c-226 0-379-139-379-422v-710h180v695c0 172 97 275 253 275 160 0 281-109 281-300v-670h181V0H879v-209C806-46 684 14 537 14" id="N"/><path d="M158 418v-1536h174v179h20c37-59 106-193 324-193 279 0 474 222 474 576 0 356-194 580-473 580-213 0-288-135-325-197h-14v591H158zm492-555c209 0 317-186 317-421 0-232-105-413-317-413-206 0-314 166-314 413 0 249 111 421 314 421" id="O"/><g id="e"><use transform="matrix(0.010850694444444444,0,0,0.010850694444444444,0,0)" xlink:href="#H"/><use transform="matrix(0.010850694444444444,0,0,0.010850694444444444,13.324652777777777,0)" xlink:href="#I"/><use transform="matrix(0.010850694444444444,0,0,0.010850694444444444,21.321614583333332,0)" xlink:href="#J"/><use transform="matrix(0.010850694444444444,0,0,0.010850694444444444,34.928385416666664,0)" xlink:href="#K"/><use transform="matrix(0.010850694444444444,0,0,0.010850694444444444,47.88411458333333,0)" xlink:href="#I"/><use transform="matrix(0.010850694444444444,0,0,0.010850694444444444,56.249999999999986,0)" xlink:href="#L"/><use transform="matrix(0.010850694444444444,0,0,0.010850694444444444,66.3845486111111,0)" xlink:href="#M"/><use transform="matrix(0.010850694444444444,0,0,0.010850694444444444,80.01302083333331,0)" xlink:href="#I"/><use transform="matrix(0.010850694444444444,0,0,0.010850694444444444,88.00998263888887,0)" xlink:href="#H"/><use transform="matrix(0.010850694444444444,0,0,0.010850694444444444,101.33463541666664,0)" xlink:href="#N"/><use transform="matrix(0.010850694444444444,0,0,0.010850694444444444,114.47482638888887,0)" xlink:href="#O"/></g><path d="M1092 296c-324 0-631-74-631-375 0-296 313-370 631-370 319 0 603 80 637 370-34 290-319 375-637 375zm490-370c-63-353-927-347-973 0 28 205 245 245 484 245 233 0 455-51 489-245zm-262-495c0 46-68 23-108 28-17 0-28-11-28-28v-967c0-46 68-23 108-28 17 0 28 11 28 28v449h262v-484c0-46 63-34 108-34 17 0 28 17 28 34v1064c0 46-68 23-108 28-17 0-28-11-28-28v-455h-262v393zM125-688c250-176 387-506 438-853 40 11 119-17 119 34 0 102-17 205-46 302 80 199 216 370 398 466 34 34-34 91-57 114-165-85-313-256-404-415-97 188-210 347-387 466-34-17-108-80-63-114" id="P"/><path d="M478-80c23-518 1161-501 1189 0-34 506-1161 512-1189 0zm592 251c210 0 449-40 449-245 0-353-893-358-893 0 0 205 222 245 444 245zM119-626c290-188 501-466 501-905 0-63 74-23 119-28 57 63 6 228-6 307 68 256 262 415 461 540-11 40-28 80-63 102-205-85-358-256-466-438-102 222-262 393-472 518-34-23-57-57-74-97zm1389-535v-410c0-51 68-28 114-34 17 0 28 17 28 34v1081c0 46-74 23-114 28-17 0-28-11-28-28v-546h-421c-46 6-23-63-28-97 0-17 11-28 28-28h421" id="Q"/><g id="f"><use transform="matrix(0.010850694444444444,0,0,0.010850694444444444,0,0)" xlink:href="#P"/><use transform="matrix(0.010850694444444444,0,0,0.010850694444444444,20.865885416666664,0)" xlink:href="#Q"/></g><path d="M1121-1115c165 85 410 142 597 205-11 40-11 119-68 108-228-57-461-148-660-245-205 102-432 193-683 262-51 17-91-91-51-114 393-119 785-267 1047-512-256-51-626 0-916-17-40 0-23-57-28-97 0-17 11-28 28-28 347 11 762-40 1064 23 102 23 57 131-11 188-91 80-193 159-319 228zm-91 1360c0 40-68 28-114 28-17 6-34-11-28-28v-666H92c-40 6-28-57-28-97-6-11 17-28 28-23h1741c46-6 34 51 34 97 0 11-17 28-34 23h-802v666" id="R"/><path d="M512-870c-256 34-159-319-159-529 0-119 40-137 159-142h905c256-34 154 319 154 523 0 119-28 142-154 148H512zm916-495c-6-40-6-51-46-51H546c-46 0-51 6-51 51v319c0 46 11 46 51 51h836c34-6 40-11 46-51v-319zM1047-131c6 46-68 23-114 28-17 6-28-17-28-28v-415H91c-34 0-28-57-28-97-6-17 11-34 28-28h1741c46-6 34 51 34 97 0 11-23 28-34 28h-785v415zm563 256c51 6 51 125 0 125H484c-262 17-154-358-154-575 0-46 68-23 108-28 17 0 28 11 28 28V85c0 34 11 40 51 40h1092" id="S"/><g id="g"><use transform="matrix(0.010850694444444444,0,0,0.010850694444444444,0,0)" xlink:href="#R"/><use transform="matrix(0.010850694444444444,0,0,0.010850694444444444,20.865885416666664,0)" xlink:href="#S"/></g><path d="M785-853C631-682 421-546 216-443c-28-23-91-97-46-119 313-176 626-404 745-762-188-34-438 0-643-11-34 0-34-114 0-125 256 17 609-46 796 40 40 171-114 341-205 466 102 119 267 245 404 324 46 28-23 97-51 119-165-68-307-216-432-341zm893 978c51 6 51 125 0 125H654C392 273 529-80 495-285c0-40 142-51 142 0V85c0 34 11 40 51 40h990zm-28-381c0 46-74 23-114 28-17 0-28-11-28-28v-1314c0-51 68-28 114-34 17 0 28 17 28 34v1314" id="T"/><path d="M478-23c68-427 956-364 1195-131 182 307-250 455-575 444-302-11-586-46-620-313zm108-1075c222 0 393 108 393 324 0 205-165 319-393 319S199-563 199-774c0-216 165-324 387-324zm734 40h262v-512c0-46 63-34 108-34 17 0 28 17 28 34v1155c0 46-68 23-108 28-17 0-28-11-28-28v-518h-262v449c0 46-68 23-108 28-17 0-28-11-28-28v-1052c0-46 68-23 108-28 17 0 28 11 28 28v478zM620-17c74 279 717 228 916 85 28-23 46-51 46-85-46-171-273-199-484-199-210 0-444 17-478 199zm-34-552c148 0 262-80 262-205 0-131-108-205-262-205-148 0-256 74-256 205s114 205 256 205zm-432-620c-46 0-40-125 0-125h853c51 0 28 57 34 97 0 17-11 28-34 28H154zm187-273c6-40-11-97 23-97h438c51 0 28 57 34 97 0 17-11 28-34 28H370c-17 6-34-11-28-28" id="U"/><g id="h"><use transform="matrix(0.010850694444444444,0,0,0.010850694444444444,0,0)" xlink:href="#T"/><use transform="matrix(0.010850694444444444,0,0,0.010850694444444444,20.865885416666664,0)" xlink:href="#U"/></g><path d="M1508-944v-626c0-51 68-28 114-34 17 0 28 17 28 34V256c0 46-74 23-114 28-17 0-28-11-28-28V-819h-375c-34 0-40-114 0-125h375zM899-393c154 0 307-23 438-40 11 17 46 108 6 114-137 34-302 40-466 46-108 6-142-57-148-148v-882c-17-233 296-114 484-142 40 0 17 57 23 91 0 17-6 23-23 23H906c-34 6-40 6-40 46v859c0 23 11 34 34 34zm-575-51c-6 131 279-11 358 68 0 40 23 91-23 91-188 0-472 74-472-159v-859c-23-228 279-114 461-142 46-6 23 57 28 91-57 57-216 6-313 23-34 6-40 6-40 46v842" id="V"/><path d="M563 273C313 296 426-57 409-262c-11-125 34-148 154-148h859c256-34 154 324 154 535 0 119-34 148-154 148H563zm871-506c6-46-6-46-46-51H597c-40 6-51 6-51 51V97c0 46 11 46 51 51h791c34-6 51-6 46-51v-330zM387-836c0 46 11 46 51 51 279 17 575-17 814-63 46-11 34 51 46 85-165 119-580 108-887 108-119 0-154-57-159-171v-683c0-46 68-23 108-28 17 0 28 11 28 28v671zm1502-222c0 40 11 97-28 97h-284v415c0 46-74 23-114 28-17 0-28-11-28-28v-1024c0-51 68-28 114-34 17 0 28 17 28 34v484h284c17-6 34 11 28 28" id="W"/><g id="i"><use transform="matrix(0.010850694444444444,0,0,0.010850694444444444,0,0)" xlink:href="#V"/><use transform="matrix(0.010850694444444444,0,0,0.010850694444444444,20.865885416666664,0)" xlink:href="#W"/></g><path d="M586-1473c6-46 137-40 148 6 0 182-11 353-51 495 74 302 279 512 461 705-6 34-51 125-97 85-176-148-319-358-427-575-97 262-233 455-421 637-51 23-80-46-102-80 302-302 501-671 489-1274zm1303 671c0 40 11 102-28 97h-284v961c0 46-74 23-114 28-17 0-28-11-28-28v-1826c0-51 68-28 114-34 17 0 28 17 28 34v745c102 11 262-28 313 23" id="X"/><path d="M415-80c23-518 1161-501 1189 0-34 506-1161 512-1189 0zm148 6c28 358 865 319 893 0-40-341-865-364-893 0zm199-859C608-774 398-643 187-546c-17-34-91-91-40-119 324-176 626-364 745-711-182-34-432 0-637-11-40 0-23-57-28-97 0-17 11-28 28-28 256 17 603-46 791 40 46 176-108 330-199 449 102 114 284 188 415 279-17 34-28 74-57 102-182-57-313-176-444-290zm1127-125c0 40 11 102-28 97h-284v461c0 46-74 23-114 28-17 0-28-11-28-28v-1070c0-51 68-28 114-34 17 0 28 17 28 34v489c102 11 262-28 313 23" id="Y"/><g id="j"><use transform="matrix(0.010850694444444444,0,0,0.010850694444444444,0,0)" xlink:href="#X"/><use transform="matrix(0.010850694444444444,0,0,0.010850694444444444,20.865885416666664,0)" xlink:href="#Y"/><use transform="matrix(0.010850694444444444,0,0,0.010850694444444444,41.73177083333333,0)" xlink:href="#y"/></g><path d="M1030 245c0 40-68 28-114 28-17 6-34-11-28-28v-671H92c-40 6-28-51-28-91-6-17 11-34 28-28h1741c46-6 34 51 34 97 0 11-17 28-34 23h-802v671zM199-887c296-148 637-307 694-683 11-40 137-28 142 11l-23 102c108 284 387 432 694 523 23 34 0 142-63 125-302-74-552-256-700-489-137 245-370 393-666 512-63 11-63-51-80-102" id="Z"/><path d="M956-370c290 0 643 46 643 336 0 284-341 336-643 336-296 0-631-46-631-336 0-284 347-336 631-336zm876-267c46-6 34 51 34 97 0 11-23 28-34 28H91c-34 0-28-57-28-97-6-17 11-34 28-28h796v-262c-199-28-558 91-535-148 17-199-102-512 159-512h1041c46-6 23 57 28 91 0 17-11 28-28 28H545c-40 6-51 11-51 57v307c0 40 11 51 51 51h1018c40 0 23 57 28 97 0 17-11 28-28 28h-535v262h802zM472-34c68 296 705 245 922 108 40-23 57-63 57-108 0-188-284-205-495-205-205 0-461 17-484 205" id="aa"/><g id="k"><use transform="matrix(0.010850694444444444,0,0,0.010850694444444444,0,0)" xlink:href="#Z"/><use transform="matrix(0.010850694444444444,0,0,0.010850694444444444,20.865885416666664,0)" xlink:href="#aa"/></g><path d="M956-370c290 0 643 46 643 336 0 284-341 336-643 336-296 0-631-46-631-336 0-284 347-336 631-336zM267-876c-51 6-74-102-40-119 393-68 779-199 1052-381 40-23 40-51-6-57H386c-46 6-23-63-28-97 0-17 11-23 28-23h939c210 0 245 74 114 205-68 68-171 131-290 193l558 137c51 137-91 108-205 80l-512-142c-210 91-466 159-722 205zM472-34c68 296 705 245 922 108 40-23 57-63 57-108 0-188-284-205-495-205-205 0-461 17-484 205zm415-876c6-51 142-51 142 0v273h802c46-6 34 51 34 97 0 11-23 28-34 28H90c-34 0-28-57-28-97-6-17 11-34 28-28h796v-273" id="ab"/><path d="M1832-159c46-6 34 51 34 97 0 11-23 28-34 28H91c-34 0-28-57-28-97-6-17 11-34 28-28h512v-364c-159 0-302 23-284-159 17-182-68-393 165-393h927c40 0 51 0 46-46v-216c0-46-6-46-46-46H347c-46 6-23-63-28-102-6-11 17-28 28-23h1087c216-28 165 216 165 410 0 119-40 137-165 142H501c-85 11-23 182-40 262-6 40 6 51 46 51h1104c40-6 28 57 28 97-46 57-216 6-313 23v364h506zm-1092 0h444v-364H740v364" id="ac"/><g id="l"><use transform="matrix(0.010850694444444444,0,0,0.010850694444444444,0,0)" xlink:href="#ab"/><use transform="matrix(0.010850694444444444,0,0,0.010850694444444444,20.865885416666664,0)" xlink:href="#ac"/></g><g id="m"><use transform="matrix(0.010850694444444444,0,0,0.010850694444444444,0,0)" xlink:href="#H"/><use transform="matrix(0.010850694444444444,0,0,0.010850694444444444,13.324652777777777,0)" xlink:href="#I"/></g><path d="M635 20c-292 0-500-160-510-396h192c11 142 145 229 315 229 187 0 323-105 323-260 0-161-125-274-346-274H488v-165h121c174 0 294-100 294-254 0-148-104-245-266-245-152 0-291 85-297 230H157c8-234 222-395 484-395 278 0 448 188 448 400 0 168-95 291-247 336v12c190 31 301 169 301 357 0 244-216 425-508 425" id="ad"/><path d="M646 20c-332 0-524-278-524-764 0-483 194-766 524-766s524 283 524 766c0 485-191 764-524 764zm0-166c218 0 341-220 341-598 0-380-123-601-341-601s-341 222-341 601c0 378 123 598 341 598" id="ae"/><path d="M1564-973c0 114-40 125-154 131H511c-114 6-159-34-154-148v-558c0-40 74-17 114-23 51 23 11 159 23 233h933c11-108-57-273 114-233 11-6 28 11 23 23v575zm-517 859c6 46-68 23-114 28-17 6-28-17-28-28v-404H91c-34 0-28-57-28-97-6-17 11-34 28-28h1741c46-6 34 51 34 97 0 11-23 28-34 28h-785v404zm330-853c102 0 34-171 51-250H495c17 80-46 250 51 250h831zm233 1092c51 6 51 125 0 125H484C228 267 359-86 330-290c-6-46 63-34 108-34 17 0 28 17 28 34V85c0 34 11 40 51 40h1092" id="af"/><g id="n"><use transform="matrix(0.010850694444444444,0,0,0.010850694444444444,0,0)" xlink:href="#ad"/><use transform="matrix(0.010850694444444444,0,0,0.010850694444444444,13.726128472222221,0)" xlink:href="#ae"/><use transform="matrix(0.010850694444444444,0,0,0.010850694444444444,27.745225694444443,0)" xlink:href="#af"/></g><path d="M415-842c46-398 876-375 1041-119 171 262-205 427-501 415-262-11-512-57-540-296zm615 1087c0 40-68 28-114 28-17 6-34-11-28-28v-552H92c-40 6-28-57-28-97-6-17 17-28 28-28h1741c40 0 34 51 34 97 0 11-17 34-34 28h-802v552zM569-842c51 245 597 216 745 74 91-199-159-256-358-250-182 6-358 23-387 176zm-347-410c0-40-11-97 28-97h1417c46 0 23 57 28 97 0 17-6 28-28 28H250c-17 6-34-11-28-28zm990-347c51 0 28 51 34 91 0 23-11 34-34 34H689c-46 0-23-57-28-97 0-17 6-28 28-28h523" id="ag"/><use transform="matrix(0.010850694444444444,0,0,0.010850694444444444,0,0)" xlink:href="#ag" id="o"/><path d="M802-796c125 165 273 307 427 444-11 34-40 68-68 91-176-102-307-273-438-427-159 188-324 353-552 489-34-17-91-68-63-108 375-273 671-540 768-1007-188-34-444 0-654-11-40 0-23-57-28-97 0-17 11-28 28-28 262 17 620-46 808 40 23 245-131 438-228 614zm1087-6c0 40 11 102-28 97h-284v961c0 46-74 23-114 28-17 0-28-11-28-28v-1826c0-51 68-28 114-34 17 0 28 17 28 34v745c102 11 262-28 313 23" id="ah"/><g id="p"><use transform="matrix(0.010850694444444444,0,0,0.010850694444444444,0,0)" xlink:href="#ah"/><use transform="matrix(0.010850694444444444,0,0,0.010850694444444444,20.865885416666664,0)" xlink:href="#aa"/></g><g id="q"><use transform="matrix(0.010850694444444444,0,0,0.010850694444444444,0,0)" xlink:href="#ab"/><use transform="matrix(0.010850694444444444,0,0,0.010850694444444444,20.865885416666664,0)" xlink:href="#ac"/></g><path d="M1650 256c0 46-74 23-114 28-17 0-28-11-28-28v-1826c0-51 68-28 114-34 17 0 28 17 28 34V256zM944-1451c262-11 137 336 85 495-131 387-410 660-757 848-46 11-114-91-74-114 387-216 694-523 757-1052 6-51-11-46-51-51H255c-34 0-34-114 0-125h688" id="ai"/><path d="M267-831c-51 6-74-102-40-119 387-63 774-228 1047-404 23-17 51-57 0-57H387c-40 0-23-57-28-97 0-17 11-28 28-28h939c205 0 245 68 114 205-74 80-188 148-302 205l569 154c46 17-6 68-11 97-210 6-506-125-717-176-216 97-455 176-711 222zm1565 262c51 0 51 119 0 125H91c-34 0-28-57-28-97-6-17 17-28 28-28h802v-273c0-46 68-23 108-28 63 46 11 210 28 302h802zm-228 694c51 6 51 125 0 125H500C250 267 341-63 341-273c0-40 142-51 142 0V85c0 34 11 40 51 40h1070" id="aj"/><g id="r"><use transform="matrix(0.010850694444444444,0,0,0.010850694444444444,0,0)" xlink:href="#ai"/><use transform="matrix(0.010850694444444444,0,0,0.010850694444444444,20.865885416666664,0)" xlink:href="#aj"/></g><path d="M1832-631c46-6 34 51 34 97 0 11-17 28-34 23H91c-40 6-28-57-28-97-6-11 17-28 28-23h466v-330c-119-51-233-131-233-284 0-279 341-341 637-341s637 63 637 341c0 154-119 228-233 279v336h466zM956-370c290 0 643 46 643 336 0 284-341 336-643 336-296 0-631-46-631-336 0-284 347-336 631-336zm495-870c-17-199-290-222-489-222-205 0-461 23-484 222 28 193 273 216 484 216 210 0 466-23 489-216zM472-34c68 296 705 245 922 108 40-23 57-63 57-108 0-188-284-205-495-205-205 0-461 17-484 205zm751-888c-159 40-364 40-523 0v290h523v-290" id="ak"/><g id="s"><use transform="matrix(0.010850694444444444,0,0,0.010850694444444444,0,0)" xlink:href="#X"/><use transform="matrix(0.010850694444444444,0,0,0.010850694444444444,20.865885416666664,0)" xlink:href="#ak"/></g><path d="M188-1109c-34-484 688-580 882-233h438c17-108-68-302 114-262 17 0 28 17 28 34v933c0 46-74 23-114 28-63-23-17-154-28-228h-472c-80 97-210 171-375 171-284 0-449-171-472-444zM1661 176c40-6 28 51 28 91 6 11-11 28-23 23H636C443 313 477 148 477-17c0-119 40-142 165-148h819c85 17 34-102 46-165 6-46-11-46-46-46H505c-40 6-28-57-28-97-6-11 17-28 28-23h978c182-23 171 137 165 307 0 125-40 137-165 142H664c-80-11-34 102-46 171 0 34 11 51 46 51h996zM660-796c193 0 330-119 330-313 0-199-131-319-330-319s-330 119-330 319c0 193 131 313 330 313zm461-427c23 91 11 182-17 267h404v-267h-387" id="al"/><path d="M1650-233c0 46-74 23-114 28-17 0-28-11-28-28v-1337c0-51 68-28 114-34 17 0 28 17 28 34v1337zm34 358c40 11 46 125 0 125H654C404 273 495-46 495-245c0-40 142-51 142 0V85c0 34 11 40 51 40h996zM415-597c336 0 586-28 893-68 6 46 57 108-6 119-262 46-609 68-922 68-228 0-154-250-154-432 0-125 40-142 165-148h495c40 0 40-6 40-46v-222c0-40 0-46-40-46H260c-40 0-23-57-28-97 0-17 11-28 28-28h649c222-34 159 228 159 415 0 125-40 142-165 148H408c-40 0-46 6-40 46 11 97-46 273 46 290" id="am"/><g id="t"><use transform="matrix(0.010850694444444444,0,0,0.010850694444444444,0,0)" xlink:href="#al"/><use transform="matrix(0.010850694444444444,0,0,0.010850694444444444,20.865885416666664,0)" xlink:href="#am"/></g><g id="u"><use transform="matrix(0.010850694444444444,0,0,0.010850694444444444,0,0)" xlink:href="#H"/><use transform="matrix(0.010850694444444444,0,0,0.010850694444444444,13.324652777777777,0)" xlink:href="#I"/><use transform="matrix(0.010850694444444444,0,0,0.010850694444444444,21.321614583333332,0)" xlink:href="#J"/><use transform="matrix(0.010850694444444444,0,0,0.010850694444444444,34.928385416666664,0)" xlink:href="#K"/><use transform="matrix(0.010850694444444444,0,0,0.010850694444444444,47.88411458333333,0)" xlink:href="#I"/><use transform="matrix(0.010850694444444444,0,0,0.010850694444444444,56.249999999999986,0)" xlink:href="#L"/><use transform="matrix(0.010850694444444444,0,0,0.010850694444444444,66.3845486111111,0)" xlink:href="#M"/><use transform="matrix(0.010850694444444444,0,0,0.010850694444444444,80.01302083333331,0)" xlink:href="#I"/><use transform="matrix(0.010850694444444444,0,0,0.010850694444444444,88.00998263888887,0)" xlink:href="#H"/><use transform="matrix(0.010850694444444444,0,0,0.010850694444444444,101.33463541666664,0)" xlink:href="#N"/><use transform="matrix(0.010850694444444444,0,0,0.010850694444444444,114.47482638888887,0)" xlink:href="#O"/></g><path d="M660-1530c296 0 489 176 489 466S944-598 660-598c-290 0-478-171-478-466 0-302 182-466 478-466zm0 802c205 0 341-125 341-341 0-222-137-330-341-330-205 0-336 114-336 330 6 216 119 341 336 341zm410 859c222-34 262-387 313-580 74 0 154 0 114 114 0 256 159 415 358 506 46 40-34 74-46 114-176-68-307-205-381-370-74 142-176 279-313 358C927 256 825 74 745-68 660 80 529 251 335 285c-17-34-46-46-51-91C512 57 694-79 677-415c0-51 80-17 119-28 40 131 23 398 176 501 28 34 63 57 97 74zm580-694c0 46-74 23-114 28-17 0-28-11-28-28v-1007c0-51 68-28 114-34 17 0 28 17 28 34v1007" id="an"/><path d="M1610-1001c-6 46 17 108-28 102H518c-273 6-108-410-154-637 0-46 74-23 114-28 17 0 28 11 28 28v466c0 40 6 51 46 46h1030c11 0 34 6 28 23zm0 1126c51 6 51 125 0 125H501C239 267 376-97 342-313c0-40 142-51 142 0V85c0 34 11 40 51 40h1075zm222-751c46-6 34 51 34 97 0 11-17 28-34 23H91c-40 6-28-51-28-91-6-17 11-34 28-28h1741" id="ao"/><path d="M774-688C615-500 450-335 222-199c-34-17-91-68-63-108 381-273 666-546 768-1007-193-34-449 0-660-11-34 0-40-125 6-125 262 0 620-46 808 40 23 245-131 438-228 614 125 159 267 319 427 444-11 40-46 63-68 91-176-102-313-267-438-427zm876 944c0 46-74 23-114 28-17 0-28-11-28-28v-1826c0-51 68-28 114-34 17 0 28 17 28 34V256" id="ap"/><g id="v"><use transform="matrix(0.010850694444444444,0,0,0.010850694444444444,0,0)" xlink:href="#an"/><use transform="matrix(0.010850694444444444,0,0,0.010850694444444444,20.865885416666664,0)" xlink:href="#ao"/><use transform="matrix(0.010850694444444444,0,0,0.010850694444444444,41.73177083333333,0)" xlink:href="#ap"/></g><path d="M1161-910c-17 182-188 239-370 262v137l518-46c51-17 34 46 40 80 6 17 0 34-23 34-358 46-791 57-1206 51-34 0-40-51-34-91 125-63 381 6 563-28v-137c-188-23-375-74-375-262 0-370 848-347 887 0zm728-6c0 40 17 97-28 97h-284v432c0 46-74 23-114 28-17 0-28-11-28-28v-1183c0-51 68-28 114-34 17 0 28 17 28 34v631c102 11 262-28 313 23zM375-131c-51-6-51-125 0-125h1047c262-23 119 336 154 535 0 46-74 23-114 28-17 0-28-11-28-28V-91c6-40-11-40-46-40H375zm35-779c28 216 580 199 609 0-28-199-575-210-609 0zm-217-330c-46 0-40-114 0-114h1052c51-6 23 57 28 91 0 17-6 23-28 23H193zm245-239c0-34-6-85 23-91h484c46 0 23 51 28 91 0 17-6 28-28 28H467c-17 6-34-11-28-28" id="aq"/><path d="M1650-267c0 46-74 23-114 28-17 0-28-11-28-28v-1303c0-51 68-28 114-34 17 0 28 17 28 34v1303zm28 392c51 6 51 125 0 125H654C387 273 529-97 495-308c0-40 142-51 142 0V85c0 34 11 40 51 40h990zM660-1519c296 0 489 188 489 484S961-551 660-551c-296 0-478-182-478-484s182-484 478-484zm0 836c210 0 341-131 341-353 0-228-131-353-341-353s-336 131-336 353c6 222 119 353 336 353" id="ar"/><g id="w"><use transform="matrix(0.010850694444444444,0,0,0.010850694444444444,0,0)" xlink:href="#aq"/><use transform="matrix(0.010850694444444444,0,0,0.010850694444444444,20.865885416666664,0)" xlink:href="#ar"/></g></defs></g></svg>